<svg xmlns="http://www.w3.org/2000/svg" width="888" height="200" viewBox="0 0 888 200">
  <path fill="none" d="M354.721 145.013H533.28v33.703H354.721z"/>
  <path fill="#88C0D0" d="M357.205 145.008h1.38l22.451 31.697h.092v-31.697h.92v32.848h-1.38l-22.45-31.697h-.092v31.697h-.92v-32.848zm39.284 8.648c6.901 0 10.627 5.936 10.627 12.376 0 6.486-3.726 12.375-10.673 12.375-6.901 0-10.627-5.889-10.627-12.375 0-6.44 3.726-12.376 10.673-12.376zm0 23.831c6.303 0 9.707-5.475 9.707-11.455 0-5.889-3.404-11.455-9.707-11.455-6.395 0-9.753 5.566-9.753 11.455 0 5.981 3.358 11.455 9.753 11.455zm15.363.368h-.92v-23.646h.92v5.843h.092c.874-3.497 3.634-6.579 9.293-6.396v.921c-6.487-.322-9.385 4.738-9.385 9.891v13.387zm29.396-32.847h.92v32.848h-.92v-6.625h-.092c-1.196 4.141-4.646 7.177-9.477 7.177-6.257 0-10.075-5.198-10.075-12.329 0-6.625 3.542-12.422 10.075-12.422 5.015 0 8.373 2.898 9.477 7.178h.092v-15.827zm-9.569 9.569c-6.487 0-9.155 6.026-9.155 11.501 0 6.072 3.037 11.409 9.155 11.409 6.073 0 9.569-5.29 9.569-11.409 0-7.314-3.819-11.501-9.569-11.501z"/>
  <path fill="#2E3440" d="M457.574 145.008h26.039v2.668h-11.455v30.18h-3.129v-30.18h-11.455v-2.668zm29.717 0h2.898v4.646h-2.898v-4.646zm0 9.109h2.898v23.738h-2.898v-23.738zm8.51-9.109h2.898v32.848h-2.898v-32.848zm8.51 0h2.898v4.646h-2.898v-4.646zm0 9.109h2.898v23.738h-2.898v-23.738zm14.95 11.409l-8.511-11.409h3.635l6.762 9.017 6.625-9.017h3.635l-8.557 11.363 9.246 12.375h-3.68l-7.453-9.983-7.314 9.983h-3.589l9.201-12.329z"/>
  <g fill="#2E3440">
    <path d="M466.561 127.013l-43.393-55.545v-15.41l48.092 62.17h25.844V30.683h-43.465l-9.396-9.399H506.5v105.729z"/>
    <path d="M421.44 21.284l43.394 55.541v15.41l-48.092-62.168h-25.843v87.545h43.463l9.4 9.401H381.5V21.284z"/>
  </g>
</svg>
