<svg xmlns="http://www.w3.org/2000/svg" width="888" height="200" viewBox="0 0 888 200">
  <path fill="none" d="M311.721 154.013H576.28v33.703H311.721z"/>
  <path fill="#2E3440" d="M562.924 174.527l-8.51-11.408h3.633l6.764 9.016 6.625-9.016h3.635l-8.557 11.363 9.246 12.375h-3.68l-7.453-9.984-7.314 9.984h-3.59l9.201-12.33zm-14.949-20.517h2.898v4.646h-2.898v-4.646zm0 9.109h2.898v23.738h-2.898v-23.738zm-24.795 0h2.898v4.094h.094c1.057-2.852 4.232-4.785 7.59-4.785 6.67 0 8.695 3.496 8.695 9.156v15.273h-2.898v-14.814c0-4.094-1.334-7.176-6.027-7.176-4.6 0-7.359 3.496-7.453 8.143v13.848h-2.898v-23.739zm-8.416-9.109h2.898v4.646h-2.898v-4.646zm0 9.109h2.898v23.738h-2.898v-23.738zm-38.365 0h2.669v4.002h.137c1.52-2.854 4.004-4.693 7.775-4.693 3.129 0 5.936 1.52 6.809 4.646 1.427-3.127 4.416-4.646 7.545-4.646 5.199 0 7.867 2.715 7.867 8.328v16.102h-2.898v-15.965c0-3.91-1.473-6.025-5.613-6.025-5.014 0-6.439 4.141-6.439 8.557v13.434h-2.898v-16.102c.045-3.221-1.289-5.889-4.969-5.889-5.015 0-7.039 3.771-7.085 8.74v13.25h-2.898v-23.739zm-14.489 0h2.668v5.566h.092c1.473-3.818 4.693-6.074 8.972-5.889v2.898c-5.245-.277-8.833 3.588-8.833 8.51v12.652h-2.898v-23.737zm-22.172 12.651c.046 4.232 2.254 9.34 7.82 9.34 4.233 0 6.533-2.484 7.453-6.074h2.898c-1.242 5.383-4.37 8.512-10.352 8.512-7.544 0-10.719-5.797-10.719-12.559 0-6.258 3.175-12.561 10.719-12.561 7.638 0 10.674 6.672 10.443 13.342h-18.262zm15.366-2.438c-.137-4.371-2.852-8.465-7.545-8.465-4.738 0-7.36 4.141-7.82 8.465h15.365zm-40.529-19.322h26.039v2.668h-11.456v30.18h-3.128v-30.18h-11.455v-2.668z"/>
  <path fill="#88C0D0" d="M398.249 154.01h.92v32.848h-.92v-6.625h-.092c-1.196 4.141-4.646 7.176-9.477 7.176-6.257 0-10.075-5.197-10.075-12.328 0-6.625 3.542-12.422 10.075-12.422 5.015 0 8.373 2.898 9.477 7.178h.092V154.01zm-9.57 9.568c-6.487 0-9.155 6.027-9.155 11.502 0 6.072 3.037 11.408 9.155 11.408 6.073 0 9.569-5.289 9.569-11.408.001-7.314-3.818-11.502-9.569-11.502zm-19.826 23.279h-.92v-23.646h.92v5.842h.092c.874-3.496 3.634-6.578 9.293-6.395v.92c-6.487-.322-9.385 4.738-9.385 9.891v13.388zm-15.363-24.199c6.901 0 10.627 5.936 10.627 12.375 0 6.486-3.726 12.375-10.673 12.375-6.901 0-10.627-5.889-10.627-12.375-.001-6.439 3.726-12.375 10.673-12.375zm0 23.83c6.303 0 9.707-5.475 9.707-11.455 0-5.889-3.404-11.455-9.707-11.455-6.395 0-9.753 5.566-9.753 11.455 0 5.981 3.358 11.455 9.753 11.455zm-39.285-32.478h1.38l22.451 31.697h.092V154.01h.92v32.848h-1.38l-22.45-31.697h-.092v31.697h-.92V154.01z"/>
  <g fill="#2E3440">
    <path d="M466.561 136.013l-43.393-55.545v-15.41l48.092 62.17h25.844V39.683h-43.465l-9.396-9.399H506.5v105.729z"/>
    <path d="M421.44 30.284l43.394 55.541v15.41l-48.092-62.168h-25.843v87.545h43.463l9.4 9.401H381.5V30.284z"/>
  </g>
</svg>
